<svg xmlns="http://www.w3.org/2000/svg" viewBox="0 0 268.42 268.42"><g transform="translate(46.52 48.12)"><circle cx="87.69" cy="86.089" r="134.02" fill="#6e326e" stroke="#8e8f8f" stroke-linecap="round" stroke-width=".38"/><path style="line-height:normal;font-variant-ligatures:normal;font-variant-position:normal;font-variant-caps:normal;font-variant-numeric:normal;font-variant-alternates:normal;font-feature-settings:normal;text-indent:0;text-align:start;text-decoration-line:none;text-decoration-style:solid;text-decoration-color:#000;text-transform:none;text-orientation:mixed;white-space:normal;shape-padding:0;isolation:auto;mix-blend-mode:normal;solid-color:#000;solid-opacity:1" fill="#fff" d="M96.326-37.759c-5.035-.071-10.324 5.245-13.262 7.756C70.19-20.628 53.424-11.527 39.7-6.083c-11.67 3.69-11.672-2.083-17.435-1.96C15.92-7.025 13.656.645 8.144 3.15.686 5.747-3.517 6.683-8.148 12.768c-4.208 8.83-13.796 13.86-18.34 20.384-2.574 3.81-4.127 8.44-5.414 13.208-1.159 5.467-1.498 7.795-1.735 12.197 13.09-31.26 46.236-34.3 69.378-48.086-6.484 6.674-12.934 14.338-17.008 21.9C9.845 48.54 4.52 63.237 10.065 69.258c11.65 12.651 52.228 5.338 74.768 21.66 30.778 20.34 38.203 45.596 67.737 65.604 31.574 20.27 58.329-9.688 46.287-41.78 5.56 35.682-23.465 44.846-44.55 18.86-10.363-12.445-15.414-27.413-22.025-40.643-17.302-42.333-67.156-62.3-105.343-64.284C44.947-.096 75.966-12.178 99.602-22.46c7.64-4.884 2.683-14.877-3.276-15.3z" color="#000" font-family="sans-serif" font-weight="400" overflow="visible"/><text style="line-height:1.25" x="-18.11" y="130.851" fill="#fff" stroke-width=".778" font-family="sans-serif" font-size="31.112" font-weight="400" letter-spacing="0" word-spacing="0"><tspan x="-18.11" y="130.851" style="-inkscape-font-specification:'Arial Bold'" font-family="Arial" font-weight="700">XARIAL</tspan></text><text style="line-height:1.25" x="124.11" y="156.034" fill="#fff" stroke-width=".551" font-family="sans-serif" font-size="22.056" font-weight="400" letter-spacing="0" word-spacing="0"><tspan x="124.11" y="156.034" style="-inkscape-font-specification:Arial" direction="rtl" font-family="Arial">when software</tspan><tspan x="124.11" y="183.858" style="-inkscape-font-specification:Arial" direction="rtl" font-family="Arial">matters</tspan></text></g></svg>